<?xml version="1.0" encoding="UTF-8" standalone="no"?>
<!-- Generator: Adobe Illustrator 20.0.0, SVG Export Plug-In . SVG Version: 6.00 Build 0)  -->

<svg
   version="1.1"
   id="White"
   x="0px"
   y="0px"
   viewBox="0 0 400 400"
   style="enable-background:new 0 0 400 400;"
   xml:space="preserve"
   sodipodi:docname="discord.svg"
   inkscape:version="1.1.1 (3bf5ae0d25, 2021-09-20)"
   xmlns:inkscape="http://www.inkscape.org/namespaces/inkscape"
   xmlns:sodipodi="http://sodipodi.sourceforge.net/DTD/sodipodi-0.dtd"
   xmlns="http://www.w3.org/2000/svg"
   xmlns:svg="http://www.w3.org/2000/svg"><defs
   id="defs9" /><sodipodi:namedview
   id="namedview7"
   pagecolor="#505050"
   bordercolor="#ffffff"
   borderopacity="1"
   inkscape:pageshadow="0"
   inkscape:pageopacity="0"
   inkscape:pagecheckerboard="1"
   showgrid="false"
   inkscape:snap-object-midpoints="true"
   inkscape:snap-bbox="true"
   inkscape:snap-bbox-midpoints="true"
   inkscape:bbox-paths="true"
   inkscape:bbox-nodes="true"
   inkscape:snap-bbox-edge-midpoints="true"
   inkscape:snap-page="true"
   inkscape:zoom="1.04"
   inkscape:cx="302.40385"
   inkscape:cy="305.76923"
   inkscape:window-width="1920"
   inkscape:window-height="1016"
   inkscape:window-x="1912"
   inkscape:window-y="341"
   inkscape:window-maximized="1"
   inkscape:current-layer="White" />
<style
   type="text/css"
   id="style2">
	.st0{fill:#FFFFFF;}
</style>

<path
   id="path815"
   d="m 338.83804,72.322378 c -25.89272,-12.000857 -53.57843,-20.722584 -82.5231,-25.688811 -3.55475,6.366529 -7.70771,14.929644 -10.57104,21.741581 -30.76891,-4.583834 -61.25489,-4.583834 -91.45794,0 -2.86277,-6.811937 -7.11004,-15.375052 -10.6966,-21.741581 C 114.61344,51.599794 86.895928,60.353572 61.003207,72.385925 8.7773809,150.5653 -5.3801857,226.80284 1.6986087,301.95784 36.337528,327.58257 69.906817,343.1488 102.90959,353.33493 c 8.14855,-11.10951 15.41597,-22.91917 21.67667,-35.36543 -11.92373,-4.48824 -23.34412,-10.02697 -34.135031,-16.45704 2.862773,-2.10101 5.663044,-4.2976 8.368451,-6.55773 65.81689,30.49534 137.32864,30.49534 202.35925,0 2.73722,2.26013 5.53693,4.45672 8.36845,6.55773 -10.82271,6.46157 -22.27436,12.0003 -34.19809,16.48909 6.26071,12.41421 13.49687,24.2559 21.67668,35.36488 33.03457,-10.18611 66.635,-25.75183 101.27395,-51.40859 8.30594,-87.1238 -14.18884,-162.66119 -59.46188,-229.635462 z M 133.55293,255.7382 c -19.75757,0 -35.960404,-18.27179 -35.960404,-40.5223 0,-22.25054 15.856844,-40.55382 35.960404,-40.55382 20.10412,0 36.30639,18.27123 35.96039,40.55382 0.0313,22.25051 -15.85627,40.5223 -35.96039,40.5223 z m 132.89275,0 c -19.75757,0 -35.96038,-18.27179 -35.96038,-40.5223 0,-22.25054 15.85627,-40.55382 35.96038,-40.55382 20.10356,0 36.30639,18.27123 35.96041,40.55382 0,22.25051 -15.85685,40.5223 -35.96041,40.5223 z"
   inkscape:connector-curvature="0"
   style="fill:#ffffff;stroke-width:5.4574" /></svg>
