<?xml version="1.0" encoding="UTF-8" standalone="no"?>
<!-- Generator: Adobe Illustrator 20.0.0, SVG Export Plug-In . SVG Version: 6.00 Build 0)  -->

<svg
   version="1.1"
   id="White"
   x="0px"
   y="0px"
   viewBox="0 0 400 400"
   style="enable-background:new 0 0 400 400;"
   xml:space="preserve"
   sodipodi:docname="youtube.svg"
   inkscape:version="1.1.1 (3bf5ae0d25, 2021-09-20)"
   xmlns:inkscape="http://www.inkscape.org/namespaces/inkscape"
   xmlns:sodipodi="http://sodipodi.sourceforge.net/DTD/sodipodi-0.dtd"
   xmlns="http://www.w3.org/2000/svg"
   xmlns:svg="http://www.w3.org/2000/svg"><defs
   id="defs9" /><sodipodi:namedview
   id="namedview7"
   pagecolor="#505050"
   bordercolor="#ffffff"
   borderopacity="1"
   inkscape:pageshadow="0"
   inkscape:pageopacity="0"
   inkscape:pagecheckerboard="1"
   showgrid="false"
   inkscape:snap-object-midpoints="true"
   inkscape:snap-bbox="true"
   inkscape:snap-bbox-midpoints="true"
   inkscape:bbox-paths="true"
   inkscape:bbox-nodes="true"
   inkscape:snap-bbox-edge-midpoints="true"
   inkscape:snap-page="true"
   inkscape:zoom="1.04"
   inkscape:cx="302.40385"
   inkscape:cy="305.76923"
   inkscape:window-width="1920"
   inkscape:window-height="1016"
   inkscape:window-x="1912"
   inkscape:window-y="341"
   inkscape:window-maximized="1"
   inkscape:current-layer="White" />
<style
   type="text/css"
   id="style2">
	.st0{fill:#FFFFFF;}
</style>

<path
   id="path2"
   style="stroke-width:2.56535;fill:#ffffff"
   d="M 200.05469 59.931641 C 200.05469 59.931641 75.120788 59.932789 44.080078 68.398438 A 50.280819 50.280819 0 0 0 8.6796875 103.79883 C -4.6088146 156.74761 -0.96729828 240.78838 8.421875 295.94336 A 50.280819 50.280819 0 0 0 43.824219 331.3457 C 74.864928 339.81135 199.79688 340.06836 199.79688 340.06836 C 199.79688 340.06836 324.73077 340.0672 355.77148 331.60156 A 50.280819 50.280819 0 0 0 391.17188 296.20117 C 404.38342 243.0215 401.33194 159.03077 391.42969 103.79883 A 50.280819 50.280819 0 0 0 356.02734 68.398438 C 324.98663 59.932789 200.05469 59.931641 200.05469 59.931641 z M 160.03516 139.9707 L 263.67578 200 L 160.03516 260.0293 L 160.03516 139.9707 z " /></svg>
